<svg xmlns="http://www.w3.org/2000/svg" style="display: none;">
  <symbol id="plus" viewBox="0 0 14 14">
    <path d="M5.53125 0.375H6.46875C6.55208 0.375 6.59375 0.416667 6.59375 0.5V11.5C6.59375 11.5833 6.55208 11.625 6.46875 11.625H5.53125C5.44792 11.625 5.40625 11.5833 5.40625 11.5V0.5C5.40625 0.416667 5.44792 0.375 5.53125 0.375Z" fill="currentColor"/>
    <path d="M0.75 5.40625H11.25C11.3333 5.40625 11.375 5.44792 11.375 5.53125V6.46875C11.375 6.55208 11.3333 6.59375 11.25 6.59375H0.75C0.666667 6.59375 0.625 6.55208 0.625 6.46875V5.53125C0.625 5.44792 0.666667 5.40625 0.75 5.40625Z" fill="currentColor"/>
  </symbol>

  <symbol id="save" viewBox="0 0 24 24">
    <path d="M20.9367 6.87422L17.1258 3.06328C16.8445 2.78203 16.4625 2.625 16.0641 2.625H3.375C2.96016 2.625 2.625 2.96016 2.625 3.375V20.625C2.625 21.0398 2.96016 21.375 3.375 21.375H20.625C21.0398 21.375 21.375 21.0398 21.375 20.625V7.93359C21.375 7.53516 21.218 7.15547 20.9367 6.87422ZM9 4.125H15V6.75H9V4.125ZM12 17.1094C10.1367 17.1094 8.625 15.5977 8.625 13.7344C8.625 11.8711 10.1367 10.3594 12 10.3594C13.8633 10.3594 15.375 11.8711 15.375 13.7344C15.375 15.5977 13.8633 17.1094 12 17.1094ZM12 11.8594C10.9641 11.8594 10.125 12.6984 10.125 13.7344C10.125 14.7703 10.9641 15.6094 12 15.6094C13.0359 15.6094 13.875 14.7703 13.875 13.7344C13.875 12.6984 13.0359 11.8594 12 11.8594Z" />
  </symbol>

  <symbol id="copy" viewBox="0 0 24 24">
    <path d="M19.5 1.5H6.9375C6.83437 1.5 6.75 1.58437 6.75 1.6875V3C6.75 3.10312 6.83437 3.1875 6.9375 3.1875H18.5625V19.3125C18.5625 19.4156 18.6469 19.5 18.75 19.5H20.0625C20.1656 19.5 20.25 19.4156 20.25 19.3125V2.25C20.25 1.83516 19.9148 1.5 19.5 1.5ZM16.5 4.5H4.5C4.08516 4.5 3.75 4.83516 3.75 5.25V17.6883C3.75 17.8875 3.82969 18.0773 3.97031 18.218L8.03203 22.2797C8.08359 22.3312 8.14219 22.3734 8.20547 22.4086V22.4531H8.30391C8.38594 22.4836 8.47266 22.5 8.56172 22.5H16.5C16.9148 22.5 17.25 22.1648 17.25 21.75V5.25C17.25 4.83516 16.9148 4.5 16.5 4.5ZM8.95312 21H8.94844L5.4375 17.4891V17.4844H8.95312V21Z" />
  </symbol>

  <symbol id="edit" viewBox="0 0 24 24">
    <path d="M20.625 19.5938H3.375C2.96016 19.5938 2.625 19.9289 2.625 20.3438V21.1875C2.625 21.2906 2.70937 21.375 2.8125 21.375H21.1875C21.2906 21.375 21.375 21.2906 21.375 21.1875V20.3438C21.375 19.9289 21.0398 19.5938 20.625 19.5938ZM6.03984 17.625C6.08672 17.625 6.13359 17.6203 6.18047 17.6133L10.1227 16.9219C10.1695 16.9125 10.2141 16.8914 10.2469 16.8563L20.182 6.92109C20.2038 6.89941 20.221 6.87366 20.2328 6.8453C20.2445 6.81695 20.2506 6.78656 20.2506 6.75586C20.2506 6.72516 20.2445 6.69477 20.2328 6.66642C20.221 6.63806 20.2038 6.61231 20.182 6.59063L16.2867 2.69297C16.2422 2.64844 16.1836 2.625 16.1203 2.625C16.057 2.625 15.9984 2.64844 15.9539 2.69297L6.01875 12.6281C5.98359 12.6633 5.9625 12.7055 5.95312 12.7523L5.26172 16.6945C5.23892 16.8201 5.24707 16.9493 5.28545 17.071C5.32384 17.1927 5.39132 17.3032 5.48203 17.393C5.63672 17.543 5.83125 17.625 6.03984 17.625Z" />
  </symbol>

  <symbol id="arrow-left" viewBox="0 0 24 24">
    <path d="M17.5303 9.25781H6.10256L12.9424 3.32031C13.0518 3.22461 12.9854 3.04688 12.8408 3.04688H11.1123C11.0362 3.04688 10.9639 3.07422 10.9073 3.12305L3.52639 9.52734C3.45879 9.58594 3.40458 9.65838 3.36742 9.73976C3.33027 9.82115 3.31104 9.90956 3.31104 9.99902C3.31104 10.0885 3.33027 10.1769 3.36742 10.2583C3.40458 10.3397 3.45879 10.4121 3.52639 10.4707L10.9502 16.9141C10.9795 16.9395 11.0147 16.9531 11.0518 16.9531H12.8389C12.9834 16.9531 13.0498 16.7734 12.9405 16.6797L6.10256 10.7422H17.5303C17.6162 10.7422 17.6865 10.6719 17.6865 10.5859V9.41406C17.6865 9.32812 17.6162 9.25781 17.5303 9.25781Z" fill="currentColor"/>
  </symbol>

  <symbol id="success-mark" viewBox="0 0 12 12">
    <path d="M10.6872 2.22656H9.86806C9.75322 2.22656 9.64423 2.2793 9.57392 2.36953L4.74228 8.49023L2.42548 5.55469C2.39044 5.51019 2.34576 5.47421 2.29482 5.44945C2.24388 5.42469 2.18798 5.41179 2.13134 5.41172H1.3122C1.23369 5.41172 1.19033 5.50195 1.23837 5.56289L4.44814 9.6293C4.59814 9.81914 4.88642 9.81914 5.03759 9.6293L10.761 2.37656C10.8091 2.3168 10.7657 2.22656 10.6872 2.22656Z" />
  </symbol>

  <symbol id="success-message" viewBox="0 0 14 14" >
    <path d="M7 0C3.13438 0 0 3.13438 0 7C0 10.8656 3.13438 14 7 14C10.8656 14 14 10.8656 14 7C14 3.13438 10.8656 0 7 0ZM10.0234 4.71406L6.73281 9.27656C6.68682 9.34076 6.62619 9.39306 6.55595 9.42914C6.48571 9.46523 6.40787 9.48405 6.32891 9.48405C6.24994 9.48405 6.17211 9.46523 6.10186 9.42914C6.03162 9.39306 5.97099 9.34076 5.925 9.27656L3.97656 6.57656C3.91719 6.49375 3.97656 6.37813 4.07812 6.37813H4.81094C4.97031 6.37813 5.12187 6.45469 5.21562 6.58594L6.32812 8.12969L8.78438 4.72344C8.87813 4.59375 9.02812 4.51562 9.18906 4.51562H9.92188C10.0234 4.51562 10.0828 4.63125 10.0234 4.71406Z" fill="#278D3F"/>
  </symbol>

  <symbol id="error-message" viewBox="0 0 14 14" >
    <path d="M7 0C3.13438 0 0 3.13438 0 7C0 10.8656 3.13438 14 7 14C10.8656 14 14 10.8656 14 7C14 3.13438 10.8656 0 7 0ZM9.58438 9.65938L8.55313 9.65469L7 7.80313L5.44844 9.65312L4.41563 9.65781C4.34688 9.65781 4.29063 9.60312 4.29063 9.53281C4.29063 9.50312 4.30156 9.475 4.32031 9.45156L6.35313 7.02969L4.32031 4.60938C4.30143 4.58647 4.29096 4.5578 4.29063 4.52812C4.29063 4.45937 4.34688 4.40312 4.41563 4.40312L5.44844 4.40781L7 6.25938L8.55156 4.40938L9.58281 4.40469C9.65156 4.40469 9.70781 4.45937 9.70781 4.52969C9.70781 4.55937 9.69688 4.5875 9.67813 4.61094L7.64844 7.03125L9.67969 9.45312C9.69844 9.47656 9.70938 9.50469 9.70938 9.53438C9.70938 9.60313 9.65313 9.65938 9.58438 9.65938Z" fill="#F10203"/>
  </symbol>

  <symbol id="info-message" viewBox="0 0 14 14" >
    <path d="M7 0C3.13438 0 0 3.13438 0 7C0 10.8656 3.13438 14 7 14C10.8656 14 14 10.8656 14 7C14 3.13438 10.8656 0 7 0ZM7.5 10.375C7.5 10.4438 7.44375 10.5 7.375 10.5H6.625C6.55625 10.5 6.5 10.4438 6.5 10.375V6.125C6.5 6.05625 6.55625 6 6.625 6H7.375C7.44375 6 7.5 6.05625 7.5 6.125V10.375ZM7 5C6.80374 4.99599 6.61687 4.91522 6.47948 4.775C6.3421 4.63478 6.26515 4.4463 6.26515 4.25C6.26515 4.0537 6.3421 3.86522 6.47948 3.725C6.61687 3.58478 6.80374 3.50401 7 3.5C7.19626 3.50401 7.38313 3.58478 7.52052 3.725C7.6579 3.86522 7.73485 4.0537 7.73485 4.25C7.73485 4.4463 7.6579 4.63478 7.52052 4.775C7.38313 4.91522 7.19626 4.99599 7 5Z" fill="#517459"/>
  </symbol>

  <symbol id="house" viewBox="0 0 24 25">
    <path d="M22.1829 12.337L13.1267 3.28541L12.5196 2.67838C12.3813 2.54098 12.1943 2.46387 11.9993 2.46387C11.8044 2.46387 11.6173 2.54098 11.479 2.67838L1.81572 12.337C1.674 12.4781 1.56199 12.6463 1.48631 12.8314C1.41063 13.0166 1.37282 13.2151 1.3751 13.4151C1.38447 14.2401 2.07119 14.8987 2.89619 14.8987H3.89228V22.5323H20.1063V14.8987H21.1235C21.5243 14.8987 21.9017 14.7417 22.1853 14.4581C22.3249 14.3189 22.4355 14.1534 22.5108 13.9711C22.586 13.7889 22.6243 13.5935 22.6235 13.3963C22.6235 12.9979 22.4665 12.6206 22.1829 12.337ZM13.3118 20.8448H10.6868V16.0635H13.3118V20.8448ZM18.4188 13.2112V20.8448H14.8118V15.501C14.8118 14.9831 14.3923 14.5635 13.8743 14.5635H10.1243C9.60635 14.5635 9.18682 14.9831 9.18682 15.501V20.8448H5.57978V13.2112H3.32978L12.0017 4.54635L12.5431 5.08775L20.6712 13.2112H18.4188Z" fill="#FAFAFA"/>
  </symbol>

  <symbol id="close" viewBox="0 0 24 24">
    <path d="M13.2143 12L19.3666 4.66641C19.4697 4.54453 19.383 4.35938 19.2236 4.35938H17.3533C17.2432 4.35938 17.1377 4.40859 17.065 4.49297L11.9908 10.5422L6.91659 4.49297C6.84628 4.40859 6.74081 4.35938 6.62831 4.35938H4.758C4.59863 4.35938 4.51191 4.54453 4.61503 4.66641L10.7674 12L4.61503 19.3336C4.59193 19.3608 4.57711 19.394 4.57233 19.4293C4.56755 19.4647 4.57301 19.5006 4.58806 19.533C4.60312 19.5653 4.62713 19.5926 4.65725 19.6117C4.68737 19.6308 4.72234 19.6408 4.758 19.6406H6.62831C6.73847 19.6406 6.84394 19.5914 6.91659 19.507L11.9908 13.4578L17.065 19.507C17.1353 19.5914 17.2408 19.6406 17.3533 19.6406H19.2236C19.383 19.6406 19.4697 19.4555 19.3666 19.3336L13.2143 12Z"/>
  </symbol>

  <symbol id="link" viewBox="0 0 25 24">
    <path d="M13.9543 15.5961C13.9191 15.5612 13.8715 15.5416 13.8219 15.5416C13.7723 15.5416 13.7247 15.5612 13.6895 15.5961L10.966 18.3196C9.70508 19.5805 7.57695 19.7141 6.18477 18.3196C4.79023 16.925 4.92383 14.7992 6.18477 13.5383L8.9082 10.8149C8.98086 10.7422 8.98086 10.6227 8.9082 10.55L7.97539 9.61721C7.94015 9.58232 7.89256 9.56274 7.84297 9.56274C7.79338 9.56274 7.74579 9.58232 7.71055 9.61721L4.98711 12.3407C3.0043 14.3235 3.0043 17.5321 4.98711 19.5125C6.96992 21.493 10.1785 21.4953 12.159 19.5125L14.8824 16.7891C14.9551 16.7164 14.9551 16.5969 14.8824 16.5242L13.9543 15.5961ZM20.0152 4.48674C18.0324 2.50393 14.8238 2.50393 12.8434 4.48674L10.1176 7.21018C10.0827 7.24542 10.0631 7.29301 10.0631 7.3426C10.0631 7.3922 10.0827 7.43978 10.1176 7.47502L11.048 8.40549C11.1207 8.47815 11.2402 8.47815 11.3129 8.40549L14.0363 5.68206C15.2973 4.42112 17.4254 4.28752 18.8176 5.68206C20.2121 7.07659 20.0785 9.20237 18.8176 10.4633L16.0941 13.1867C16.0592 13.222 16.0397 13.2696 16.0397 13.3192C16.0397 13.3688 16.0592 13.4163 16.0941 13.4516L17.027 14.3844C17.0996 14.4571 17.2191 14.4571 17.2918 14.3844L20.0152 11.661C21.9957 9.67815 21.9957 6.46956 20.0152 4.48674ZM14.8004 8.72659C14.7652 8.69169 14.7176 8.67212 14.668 8.67212C14.6184 8.67212 14.5708 8.69169 14.5355 8.72659L9.22695 14.0328C9.19206 14.0681 9.17248 14.1157 9.17248 14.1653C9.17248 14.2149 9.19206 14.2624 9.22695 14.2977L10.1551 15.2258C10.2277 15.2985 10.3473 15.2985 10.4199 15.2258L15.7262 9.91956C15.7988 9.8469 15.7988 9.72737 15.7262 9.65471L14.8004 8.72659Z"/>
  </symbol>

  <symbol id="info" viewBox="0 0 25 24">
    <path d="M12.5 1.5C6.70156 1.5 2 6.20156 2 12C2 17.7984 6.70156 22.5 12.5 22.5C18.2984 22.5 23 17.7984 23 12C23 6.20156 18.2984 1.5 12.5 1.5ZM13.25 17.0625C13.25 17.1656 13.1656 17.25 13.0625 17.25H11.9375C11.8344 17.25 11.75 17.1656 11.75 17.0625V10.6875C11.75 10.5844 11.8344 10.5 11.9375 10.5H13.0625C13.1656 10.5 13.25 10.5844 13.25 10.6875V17.0625ZM12.5 9C12.2056 8.99399 11.9253 8.87282 11.7192 8.6625C11.5132 8.45218 11.3977 8.16945 11.3977 7.875C11.3977 7.58055 11.5132 7.29782 11.7192 7.0875C11.9253 6.87718 12.2056 6.75601 12.5 6.75C12.7944 6.75601 13.0747 6.87718 13.2808 7.0875C13.4868 7.29782 13.6023 7.58055 13.6023 7.875C13.6023 8.16945 13.4868 8.45218 13.2808 8.6625C13.0747 8.87282 12.7944 8.99399 12.5 9Z"/>
  </symbol>
  
  <symbol id="remove" viewBox="0 0 25 24">
    <path d="M11.1529 1.13261C5.60871 2.1734 1.71598 7.04474 2.01625 12.5491C2.16638 15.3604 3.27093 17.839 5.2441 19.8132C6.69181 21.2618 8.30038 22.1845 10.295 22.721C11.2387 22.9678 11.5604 23 13.0296 23C14.4666 23 14.8312 22.9678 15.732 22.721C17.748 22.1845 19.3673 21.2618 20.815 19.8132C22.2627 18.3647 23.185 16.7445 23.7212 14.7273C23.9678 13.826 24 13.4612 24 12.0234C24 10.5534 23.9678 10.2315 23.7212 9.28728C22.6703 5.36016 19.6569 2.34508 15.7641 1.33647C14.4022 0.982389 12.429 0.896551 11.1529 1.13261ZM11.3888 8.2894L13.0296 9.93107L14.6918 8.26794L16.3539 6.60482L17.3941 7.65634L18.4451 8.69714L16.7829 10.3603L15.1207 12.0234L16.7829 13.6865L18.4451 15.3496L17.3941 16.3904L16.3539 17.4419L14.6918 15.7788L13.0296 14.1157L11.3674 15.7788L9.7052 17.4419L8.66499 16.3904L7.61406 15.3496L9.27625 13.6865L10.9384 12.0234L9.27625 10.3603L7.61406 8.69714L8.63282 7.6778C9.19046 7.11985 9.67303 6.65847 9.7052 6.65847C9.72665 6.65847 10.488 7.39883 11.3888 8.2894Z"  fill="#CC3332"/>
  </symbol>
</svg>
